<?xml version="1.0" standalone="yes"?>

<svg version="1.1" viewBox="0.0 0.0 556.010498687664 473.2703412073491" fill="none" stroke="none" stroke-linecap="square" stroke-miterlimit="10" xmlns="http://www.w3.org/2000/svg" xmlns:xlink="http://www.w3.org/1999/xlink"><clipPath id="p.0"><path d="m0 0l556.0105 0l0 473.27036l-556.0105 0l0 -473.27036z" clip-rule="nonzero"></path></clipPath><g clip-path="url(#p.0)"><path fill="#000000" fill-opacity="0.0" d="m0 0l556.0105 0l0 473.27036l-556.0105 0z" fill-rule="evenodd"></path><path fill="#e0ebf5" d="m158.57217 121.08793l0 0c0 -65.96107 53.472015 -119.433075 119.433075 -119.433075l0 0c31.675629 0 62.053894 12.583091 84.451935 34.98114c22.39804 22.398045 34.98114 52.776314 34.98114 84.451935l0 0c0 65.96107 -53.472015 119.43307 -119.433075 119.43307l0 0c-65.96106 0 -119.433075 -53.472 -119.433075 -119.43307z" fill-rule="evenodd"></path><path stroke="#000000" stroke-width="2.0" stroke-linejoin="round" stroke-linecap="butt" d="m158.57217 121.08793l0 0c0 -65.96107 53.472015 -119.433075 119.433075 -119.433075l0 0c31.675629 0 62.053894 12.583091 84.451935 34.98114c22.39804 22.398045 34.98114 52.776314 34.98114 84.451935l0 0c0 65.96107 -53.472015 119.43307 -119.433075 119.43307l0 0c-65.96106 0 -119.433075 -53.472 -119.433075 -119.43307z" fill-rule="evenodd"></path><path fill="#e0ebf5" d="m2.7296588 352.1824l0 0c0 -65.96106 53.472008 -119.43306 119.43307 -119.43306l0 0c31.675621 0 62.053886 12.583084 84.45194 34.981125c22.39804 22.398071 34.981125 52.776337 34.981125 84.451935l0 0c0 65.96106 -53.472 119.433075 -119.43307 119.433075l0 0c-65.96106 0 -119.43307 -53.472015 -119.43307 -119.433075z" fill-rule="evenodd"></path><path stroke="#000000" stroke-width="2.0" stroke-linejoin="round" stroke-linecap="butt" d="m2.7296588 352.1824l0 0c0 -65.96106 53.472008 -119.43306 119.43307 -119.43306l0 0c31.675621 0 62.053886 12.583084 84.45194 34.981125c22.39804 22.398071 34.981125 52.776337 34.981125 84.451935l0 0c0 65.96106 -53.472 119.433075 -119.43307 119.433075l0 0c-65.96106 0 -119.43307 -53.472015 -119.43307 -119.433075z" fill-rule="evenodd"></path><path fill="#375eab" d="m192.08398 121.08793l37.2126 -74.42516l97.41731 0l37.212616 74.42516l-37.212616 74.42516l-97.41731 0z" fill-rule="evenodd"></path><path stroke="#000000" stroke-width="1.0" stroke-linejoin="round" stroke-linecap="butt" d="m192.08398 121.08793l37.2126 -74.42516l97.41731 0l37.212616 74.42516l-37.212616 74.42516l-97.41731 0z" fill-rule="evenodd"></path><path fill="#375eab" d="m36.24147 352.1824l37.2126 -74.42514l97.41731 0l37.2126 74.42514l-37.2126 74.42517l-97.41731 0z" fill-rule="evenodd"></path><path stroke="#000000" stroke-width="1.0" stroke-linejoin="round" stroke-linecap="butt" d="m36.24147 352.1824l37.2126 -74.42514l97.41731 0l37.2126 74.42514l-37.2126 74.42517l-97.41731 0z" fill-rule="evenodd"></path><path fill="#e0ebf5" d="m314.4147 352.1824l0 0c0 -65.96106 53.472015 -119.43306 119.433075 -119.43306l0 0c31.675598 0 62.053894 12.583084 84.451904 34.981125c22.398071 22.398071 34.98114 52.776337 34.98114 84.451935l0 0c0 65.96106 -53.471985 119.433075 -119.433044 119.433075l0 0c-65.96106 0 -119.433075 -53.472015 -119.433075 -119.433075z" fill-rule="evenodd"></path><path stroke="#000000" stroke-width="2.0" stroke-linejoin="round" stroke-linecap="butt" d="m314.4147 352.1824l0 0c0 -65.96106 53.472015 -119.43306 119.433075 -119.43306l0 0c31.675598 0 62.053894 12.583084 84.451904 34.981125c22.398071 22.398071 34.98114 52.776337 34.98114 84.451935l0 0c0 65.96106 -53.471985 119.433075 -119.433044 119.433075l0 0c-65.96106 0 -119.433075 -53.472015 -119.433075 -119.433075z" fill-rule="evenodd"></path><path fill="#375eab" d="m347.9265 352.1824l37.212585 -74.42514l97.41733 0l37.212616 74.42514l-37.212616 74.42517l-97.41733 0z" fill-rule="evenodd"></path><path stroke="#000000" stroke-width="1.0" stroke-linejoin="round" stroke-linecap="butt" d="m347.9265 352.1824l37.212585 -74.42514l97.41733 0l37.212616 74.42514l-37.212616 74.42517l-97.41733 0z" fill-rule="evenodd"></path><path fill="#000000" fill-opacity="0.0" d="m229.29659 195.51309l-58.4252 82.236206" fill-rule="evenodd"></path><path stroke="#000000" stroke-width="3.0" stroke-linejoin="round" stroke-linecap="butt" d="m223.34201 203.89444l-42.045593 59.18112" fill-rule="evenodd"></path><path fill="#000000" stroke="#000000" stroke-width="3.0" stroke-linecap="butt" d="m223.342 203.89444l0.79634094 4.7042847l2.6181946 -9.510376l-8.118805 5.6024323z" fill-rule="evenodd"></path><path fill="#000000" stroke="#000000" stroke-width="3.0" stroke-linecap="butt" d="m177.25691 260.20566l-3.845459 13.968384l11.9244995 -8.228577z" fill-rule="evenodd"></path><path fill="#000000" fill-opacity="0.0" d="m326.7139 195.51309l58.4252 82.236206" fill-rule="evenodd"></path><path stroke="#000000" stroke-width="3.0" stroke-linejoin="round" stroke-linecap="butt" d="m332.6685 203.89444l42.045593 59.18112" fill-rule="evenodd"></path><path fill="#000000" stroke="#000000" stroke-width="3.0" stroke-linecap="butt" d="m332.6685 203.89444l4.7042847 0.79634094l-8.118805 -5.6024323l2.6181946 9.510376z" fill-rule="evenodd"></path><path fill="#000000" stroke="#000000" stroke-width="3.0" stroke-linecap="butt" d="m370.67456 265.94547l11.924469 8.228577l-3.845459 -13.968384z" fill-rule="evenodd"></path><path fill="#000000" fill-opacity="0.0" d="m347.9265 352.1824l-139.84253 0" fill-rule="evenodd"></path><path stroke="#000000" stroke-width="3.0" stroke-linejoin="round" stroke-linecap="butt" d="m337.64526 352.1824l-111.56128 0" fill-rule="evenodd"></path><path fill="#000000" stroke="#000000" stroke-width="3.0" stroke-linecap="butt" d="m337.64526 352.1824l-3.3737793 3.3737488l9.269318 -3.3737488l-9.269318 -3.3737488z" fill-rule="evenodd"></path><path fill="#000000" stroke="#000000" stroke-width="3.0" stroke-linecap="butt" d="m226.08398 347.2272l-13.614288 4.9552l13.614288 4.9552z" fill-rule="evenodd"></path></g></svg>

